<svg id="Shop_CO" data-name="Shop CO" xmlns="http://www.w3.org/2000/svg" viewBox="0 0 256 256"><defs><style>.cls-1{fill:#0c9;}</style></defs><path class="cls-1" d="M179.094,174.455A20.742,20.742,0,1,0,199.836,195.2,20.765,20.765,0,0,0,179.094,174.455Zm3.3,20.742a3.3,3.3,0,1,1-3.3-3.3A3.308,3.308,0,0,1,182.4,195.2Z"/><path class="cls-1" d="M117.641,174.455A20.742,20.742,0,1,0,138.383,195.2,20.766,20.766,0,0,0,117.641,174.455Zm3.3,20.742a3.3,3.3,0,1,1-3.3-3.3A3.308,3.308,0,0,1,120.945,195.2Z"/><path class="cls-1" d="M186.575,143.135a8.691,8.691,0,0,0,7.748-4.719l34.2-66.264a8.718,8.718,0,0,0-7.749-12.717H80.736L72.141,42.78a8.691,8.691,0,0,0-7.748-4.72H41.225a8.719,8.719,0,0,0,0,17.438H59.082l40.253,77.993-17.995,23.4a8.719,8.719,0,0,0,6.91,14.036H203.675a8.719,8.719,0,0,0,0-17.438H105.956l7.961-10.35Zm19.888-66.262-25.2,48.824H114.937l-25.2-48.824Z"/></svg>