<svg xmlns="http://www.w3.org/2000/svg" width="256" height="256" viewBox="0 0 256 256"><defs><style>.a{fill:#26e;}</style></defs><path class="a" d="M177.446,142.474a40.613,40.613,0,1,0,40.613,40.613A40.658,40.658,0,0,0,177.446,142.474Zm24.284,44.955-19.942,19.942a6.139,6.139,0,0,1-8.684,0l-19.943-19.942a6.141,6.141,0,1,1,8.685-8.684l9.46,9.46v-22.04a6.141,6.141,0,1,1,12.281,0v22.04l9.46-9.46a6.14,6.14,0,1,1,8.683,8.684Z"/><path class="a" d="M152.063,77.655H95.657A9.552,9.552,0,0,0,86.116,87.2v73.328a9.541,9.541,0,0,0,19.082,0V132.272h39.815a9.541,9.541,0,0,0,0-19.081H105.2V96.737h46.865a9.541,9.541,0,1,0,0-19.082Z"/><path class="a" d="M128.087,194.238h-59.5a9.469,9.469,0,0,1-9.459-9.459V62.941a9.47,9.47,0,0,1,9.459-9.459H179.139a9.471,9.471,0,0,1,9.459,9.459v70.787a50.34,50.34,0,0,1,17.181,7.441V62.941a26.671,26.671,0,0,0-26.64-26.64H68.582a26.671,26.671,0,0,0-26.641,26.64V184.779A26.672,26.672,0,0,0,68.582,211.42h66.946A50.384,50.384,0,0,1,128.087,194.238Z"/></svg>